<svg width="147" height="51" viewBox="0 0 147 51" fill="none" xmlns="http://www.w3.org/2000/svg">
<g id="Group 334985">
<path id="Vector" fill-rule="evenodd" clip-rule="evenodd" d="M20.0997 27.2756C20.3954 27.0428 20.6276 26.7654 20.7821 26.4602C20.9366 26.1549 21.0103 25.8283 20.9986 25.5H17.9772L16.0586 27.4472C16.6545 27.7874 17.3819 27.9562 18.1181 27.9249C18.8544 27.8936 19.5543 27.6643 20.0997 27.2756Z" fill="white"/>
<path id="Vector_2" fill-rule="evenodd" clip-rule="evenodd" d="M15.7358 23.7869C15.1704 24.2429 14.8441 24.8561 14.8242 25.5H18.0187L19.7654 23.5342C19.1615 23.1939 18.4294 23.0331 17.6943 23.0791C16.9592 23.1252 16.2669 23.3754 15.7358 23.7869Z" fill="white"/>
<path id="Vector_3" fill-rule="evenodd" clip-rule="evenodd" d="M41.1054 27.9285H50.648L50.3151 30.5387H46.9239L45.8559 38.8571H43.2761L44.3371 30.5387H40.7656L41.1054 27.9285Z" fill="white"/>
<path id="Vector_4" fill-rule="evenodd" clip-rule="evenodd" d="M61.3071 32.2323C61.134 31.6567 60.7507 31.1482 60.217 30.7863C59.6889 30.4457 59.0473 30.2719 58.3947 30.2925C57.7122 30.286 57.0435 30.463 56.4769 30.8004C55.8933 31.1451 55.4389 31.6363 55.1719 32.2112L61.3071 32.2323ZM62.2382 37.5016C61.8136 37.8105 61.3455 38.0689 60.8456 38.2705C59.8615 38.666 58.7908 38.8636 57.7103 38.8489C56.9395 38.8876 56.1677 38.789 55.4405 38.5588C54.7134 38.3286 54.0457 37.9715 53.4769 37.5087C52.952 37.0496 52.5397 36.4993 52.2659 35.8924C51.992 35.2855 51.8625 34.635 51.8854 33.9817C51.8666 33.1863 52.0281 32.3956 52.3602 31.6565C52.6924 30.9174 53.1884 30.2449 53.8191 29.6788C54.421 29.1153 55.1484 28.6688 55.9553 28.3677C56.7621 28.0665 57.6307 27.9173 58.5061 27.9295C59.5329 27.9124 60.5472 28.1311 61.4504 28.5643C62.3192 28.9995 63.0268 29.6489 63.4875 30.4336C63.9875 31.2519 64.2449 32.1694 64.2355 33.1C64.2325 33.4525 64.1953 33.8041 64.1241 34.151H54.7819C54.7757 34.4718 54.843 34.7904 54.9798 35.0875C55.1166 35.3845 55.32 35.6539 55.5777 35.8792C56.1543 36.3315 56.9099 36.5624 57.6785 36.5211C58.7103 36.5274 59.7102 36.2044 60.4955 35.6112L62.2382 37.5016Z" fill="white"/>
<path id="Vector_5" fill-rule="evenodd" clip-rule="evenodd" d="M76.5884 38.8571H73.7107L71.9381 32.1802L68.341 38.8571H65.4707L71.6266 27.9285H73.3992L76.5884 38.8571Z" fill="white"/>
<path id="Vector_6" fill-rule="evenodd" clip-rule="evenodd" d="M87.2345 32.2323C87.0786 31.6609 86.704 31.1553 86.1747 30.8015C85.6454 30.4478 84.9941 30.2679 84.3319 30.2925C83.651 30.2861 82.9835 30.4605 82.4154 30.7934C81.8386 31.1425 81.3883 31.6326 81.1191 32.2041L87.2345 32.2323ZM88.2047 37.4803C87.7704 37.7967 87.292 38.0622 86.7812 38.2703C85.8 38.6644 84.733 38.8618 83.6559 38.8487C82.8843 38.8879 82.1116 38.7896 81.3836 38.5594C80.6555 38.3292 79.9869 37.9718 79.4173 37.5085C78.8927 37.0494 78.4807 36.4992 78.207 35.8923C77.9333 35.2854 77.8039 34.635 77.8268 33.9816C77.8085 33.1861 77.9716 32.3955 78.3064 31.6573C78.6412 30.9191 79.1408 30.2485 79.7751 29.6859C80.3742 29.121 81.0994 28.673 81.9045 28.3706C82.7096 28.0682 83.5769 27.918 84.4512 27.9296C85.4784 27.9114 86.493 28.1327 87.3936 28.5714C88.2632 29.0018 88.9712 29.6494 89.4294 30.4336C89.9291 31.2519 90.1863 32.1694 90.1769 33.0999C90.1688 33.4542 90.1342 33.8077 90.0735 34.158H80.7135C80.7098 34.4774 80.7782 34.7943 80.9148 35.0899C81.0513 35.3855 81.2533 35.6539 81.5088 35.8791C82.0855 36.3313 82.8395 36.5643 83.6082 36.528C84.6583 36.5338 85.6741 36.1974 86.4631 35.5828L88.2047 37.4803Z" fill="white"/>
<path id="Vector_7" fill-rule="evenodd" clip-rule="evenodd" d="M92.9989 27.9285H95.9423L95.3155 32.2393L100.1 27.9285H103.765L97.8861 33.1562L102.67 38.8571H98.9334L95.6408 34.8864L94.8316 35.5371L94.3476 38.8571H91.4121L92.9989 27.9285Z" fill="white"/>
<path id="Vector_8" fill-rule="evenodd" clip-rule="evenodd" d="M109.669 29.4011C109.198 29.3751 108.728 29.4747 108.3 29.6912C107.873 29.9077 107.501 30.2345 107.217 30.6429C106.665 31.4174 106.364 32.367 106.359 33.3453C106.347 33.726 106.404 34.1056 106.528 34.4621C106.652 34.8187 106.84 35.1452 107.08 35.4229C107.322 35.6871 107.613 35.8931 107.934 36.0277C108.254 36.1623 108.597 36.2223 108.941 36.204C109.417 36.2348 109.894 36.1417 110.33 35.9325C110.767 35.7232 111.151 35.4039 111.45 35.0012C112.022 34.2171 112.328 33.2435 112.315 32.2441C112.331 31.8653 112.275 31.4872 112.151 31.1326C112.027 30.7781 111.838 30.4547 111.594 30.1821C111.346 29.9183 111.05 29.7127 110.725 29.5784C110.4 29.444 110.053 29.3836 109.705 29.4011H109.669ZM109.849 26.7221C110.753 26.7078 111.643 26.953 112.431 27.4329C113.2 27.8989 113.829 28.596 114.241 29.4401C114.81 30.6619 115.008 32.0477 114.806 33.3988C114.604 34.7499 114.012 35.997 113.116 36.9616C112.54 37.5822 111.854 38.0698 111.099 38.3947C110.344 38.7196 109.536 38.8751 108.724 38.8517C108.062 38.8844 107.4 38.7696 106.78 38.5143C106.159 38.2591 105.594 37.8689 105.119 37.3677C104.663 36.8482 104.309 36.2347 104.078 35.5637C103.846 34.8928 103.741 34.1782 103.77 33.4625C103.759 32.5854 103.908 31.7144 104.208 30.8998C104.509 30.0851 104.955 29.3429 105.521 28.7157C106.087 28.0886 106.763 27.5889 107.508 27.2454C108.253 26.9019 109.054 26.7214 109.864 26.7143L109.849 26.7221Z" fill="white"/>
<path id="Vector_9" fill-rule="evenodd" clip-rule="evenodd" d="M124.728 34.8199L129.078 27.9285H130.901L132.176 38.8571H129.461L128.861 32.4464L124.675 38.8571H123.535L121.188 32.4538L118.832 38.8571H116.117L120.385 27.9285H122.208L124.728 34.8199Z" fill="white"/>
<path id="Vector_10" fill-rule="evenodd" clip-rule="evenodd" d="M65.8977 9.64783V13.8865H66.6016C67.1476 13.8946 67.6935 13.8605 68.2347 13.7843C68.627 13.7177 68.9878 13.5206 69.2624 13.2226C69.5685 12.8225 69.7147 12.3158 69.6707 11.8073C69.7074 11.2882 69.568 10.772 69.2765 10.3482C69.0163 10.0475 68.6672 9.84477 68.2839 9.77185C67.7269 9.68846 67.1643 9.65186 66.6016 9.66241L65.8977 9.64783ZM61.7656 23.0714V6.07306H68.1572C69.232 6.05076 70.2999 6.25427 71.2967 6.67129C72.1708 7.04045 72.9099 7.68646 73.4085 8.51704C73.9177 9.47809 74.1613 10.5661 74.1124 11.6614C74.1299 12.5385 74.0013 13.4121 73.7323 14.2439C73.508 14.9288 73.1235 15.5454 72.6131 16.0386C72.09 16.5275 71.4666 16.8867 70.7899 17.0892C69.9847 17.3291 69.1498 17.4447 68.3121 17.432H65.8977V23.0714H61.7656Z" fill="white"/>
<path id="Vector_11" fill-rule="evenodd" clip-rule="evenodd" d="M77.8242 6.07141V23.0714H82.0064L84.9409 19.0658L89.7085 13.2946L89.7008 12.6817V23.0714H93.883V6.07141H89.7008L86.982 9.77055L81.991 15.695L82.0064 16.483V6.07141H77.8242Z" fill="white"/>
<path id="Vector_12" fill-rule="evenodd" clip-rule="evenodd" d="M121.657 12.6306H127.874V6.07141H132.177V23.0714H127.874V16.1109H121.657V23.0714H117.354V6.07141H121.657V12.6306Z" fill="white"/>
<path id="Vector_13" fill-rule="evenodd" clip-rule="evenodd" d="M112.406 8.86517L109.522 12.3922L109.718 12.6855C110.134 13.3483 110.356 14.109 110.36 14.8853C110.374 15.7916 110.154 16.6868 109.718 17.4884C109.326 18.2356 108.734 18.8664 108.004 19.3143C107.295 19.7562 106.468 19.988 105.626 19.9815C104.942 19.9834 104.267 19.8302 103.655 19.5343L100.778 23.032C101.149 23.2487 101.535 23.4398 101.934 23.6039C104.309 24.513 106.95 24.513 109.325 23.6039C110.438 23.1592 111.441 22.4921 112.27 21.6461C113.123 20.7831 113.782 19.7566 114.203 18.6323C114.664 17.4242 114.894 16.1444 114.882 14.856C114.894 13.646 114.637 12.4479 114.127 11.3436C113.709 10.4227 113.127 9.5811 112.406 8.85784V8.86517ZM105.611 6.07874C106.8 6.07508 107.98 6.29418 109.084 6.72402C109.782 6.98267 110.444 7.32507 111.054 7.74327L108.231 11.1676L107.974 11.0063C107.259 10.593 106.443 10.3751 105.611 10.3757C104.782 10.3793 103.969 10.5969 103.255 11.0063C102.544 11.4181 101.95 11.9952 101.526 12.6855C101.11 13.3483 100.888 14.109 100.884 14.8853C100.847 16.1969 101.318 17.4742 102.205 18.4637L99.3212 21.9687C99.2004 21.866 99.0872 21.7561 98.9739 21.6387C98.1216 20.7737 97.4611 19.748 97.0335 18.625C96.5724 17.4194 96.3421 16.142 96.354 14.856C96.3458 13.6464 96.6032 12.449 97.109 11.3436C97.5935 10.2837 98.2918 9.32873 99.1627 8.5352C100.917 6.95594 103.219 6.07627 105.611 6.07141V6.07874Z" fill="white"/>
<path id="Vector_14" fill-rule="evenodd" clip-rule="evenodd" d="M55.7528 8.85899L53.0517 12.3874C53.1152 12.4828 53.1786 12.5782 53.2351 12.6809C53.6239 13.3439 53.8312 14.1049 53.8345 14.8816C53.8435 15.7868 53.6402 16.6807 53.2421 17.4857C52.8732 18.2335 52.3179 18.8644 51.6341 19.3123C50.9738 19.7534 50.2044 19.9853 49.4196 19.9798C48.7787 19.9815 48.1461 19.8283 47.5718 19.5323L44.8848 23.0315C45.2311 23.2483 45.5917 23.4395 45.9638 23.6036C48.1823 24.5131 50.6499 24.5131 52.8683 23.6036C53.9071 23.1588 54.8443 22.4914 55.6188 21.645C56.4136 20.7799 57.0282 19.7535 57.4243 18.6301C57.8584 17.4224 58.0736 16.1415 58.0591 14.8522C58.0668 13.6421 57.8264 12.4442 57.3538 11.3384C56.9584 10.42 56.4145 9.57889 55.7458 8.85166L55.7528 8.85899ZM49.4055 6.07144C50.5144 6.06836 51.6135 6.28754 52.6426 6.71698C53.2947 6.97573 53.9131 7.31828 54.4834 7.73664L51.8457 11.1624C51.7681 11.1037 51.6835 11.0597 51.5989 11.001C50.9358 10.5887 50.1779 10.3707 49.4055 10.3701C48.6309 10.3716 47.871 10.5895 47.2051 11.001C46.5396 11.4188 45.9884 12.0074 45.6041 12.7102C45.207 13.3698 44.9967 14.1326 44.9976 14.9109C44.9626 16.223 45.4031 17.5008 46.2318 18.4907L43.5377 21.9971C43.4249 21.8944 43.3191 21.7844 43.2133 21.667C42.4195 20.7997 41.8029 19.7741 41.4008 18.6521C40.97 17.446 40.7549 16.1681 40.766 14.8816C40.7585 13.6715 40.9989 12.4736 41.4713 11.3678C41.9265 10.309 42.5785 9.35414 43.3896 8.55822C45.0338 6.98505 47.1856 6.11074 49.4196 6.10812L49.4055 6.07144Z" fill="white"/>
<path id="Vector_15" fill-rule="evenodd" clip-rule="evenodd" d="M78.0001 46.1378H76.5666C76.3146 46.1528 76.0624 46.1134 75.8238 46.0219C75.6633 45.9472 75.5335 45.8084 75.4599 45.6326C75.3828 45.388 75.3475 45.1295 75.3559 44.8705V43.8351C75.3429 43.5528 75.3834 43.2705 75.4747 43.0068C75.5098 42.9159 75.5616 42.8342 75.6269 42.7671C75.6922 42.7 75.7694 42.6491 75.8535 42.6175C76.0931 42.5307 76.3445 42.4915 76.5963 42.5015H77.859C78.0904 42.4976 78.3209 42.534 78.5423 42.6092C78.7175 42.6717 78.8658 42.8046 78.9582 42.982C79.0712 43.2123 79.1228 43.4738 79.1068 43.7357H78.312C78.3197 43.6624 78.3116 43.588 78.2884 43.5189C78.2651 43.4497 78.2274 43.3877 78.1783 43.3381C78.0432 43.2435 77.8843 43.2 77.7253 43.2139H76.7448C76.6116 43.1957 76.4769 43.1957 76.3437 43.2139C76.304 43.2257 76.2673 43.2475 76.2364 43.2777C76.2055 43.3078 76.1812 43.3455 76.1655 43.3878C76.1297 43.5221 76.1146 43.6621 76.1209 43.802V44.6883C76.1124 44.8296 76.1327 44.9712 76.1803 45.1024C76.2199 45.1916 76.2892 45.26 76.3735 45.2929C76.4917 45.3305 76.6145 45.3473 76.7374 45.3427H77.7253C77.8436 45.3595 77.9634 45.3595 78.0818 45.3427C78.1195 45.3312 78.1547 45.3113 78.1853 45.2843C78.216 45.2572 78.2414 45.2236 78.26 45.1853C78.3043 45.0821 78.3247 44.9682 78.3195 44.8539H79.1885C79.1964 45.1096 79.1637 45.3648 79.0919 45.6077C79.0629 45.6939 79.0172 45.772 78.9582 45.8364C78.8992 45.9008 78.8282 45.95 78.7503 45.9804C78.5115 46.071 78.2594 46.1104 78.0075 46.0964L78.0001 46.1378ZM80.4066 44.8291C80.3991 44.9534 80.4169 45.078 80.4586 45.1936C80.4755 45.2373 80.501 45.2764 80.5331 45.3079C80.5652 45.3394 80.6032 45.3626 80.6443 45.3758C80.7623 45.4146 80.8853 45.4314 81.0082 45.4255H82.0258C82.1536 45.4305 82.2813 45.4138 82.4046 45.3758C82.4427 45.3624 82.4777 45.3399 82.5072 45.3098C82.5367 45.2798 82.56 45.2429 82.5754 45.2018C82.6174 45.0805 82.6351 44.9505 82.6274 44.8208V43.9097C82.6324 43.774 82.6121 43.6386 82.568 43.5121C82.551 43.4674 82.5257 43.4272 82.4937 43.3944C82.4616 43.3615 82.4237 43.3367 82.3823 43.3216C82.2621 43.28 82.1367 43.2604 82.0109 43.2636H81.0231C80.8948 43.2606 80.767 43.2801 80.6443 43.3216C80.6045 43.3381 80.5682 43.3636 80.5375 43.3963C80.5069 43.4291 80.4825 43.4685 80.466 43.5121C80.4218 43.6386 80.4016 43.774 80.4066 43.9097V44.8291ZM83.3776 44.9202C83.3807 45.1128 83.3607 45.305 83.3182 45.4917C83.2865 45.6319 83.2225 45.7604 83.1325 45.8645C83.033 45.9687 82.9096 46.0404 82.776 46.0716C82.5914 46.1222 82.4015 46.1445 82.2115 46.1378H80.8002C80.6151 46.1446 80.4301 46.1223 80.2506 46.0716C80.116 46.0322 79.9914 45.9584 79.8867 45.8562C79.7874 45.7528 79.7155 45.621 79.6787 45.4752C79.6305 45.2952 79.608 45.108 79.6118 44.9202V43.8351C79.6074 43.6255 79.6299 43.4163 79.6787 43.2139C79.7134 43.069 79.7827 42.9373 79.8792 42.8329C79.9787 42.7286 80.1021 42.657 80.2358 42.6258C80.4212 42.5816 80.6107 42.5621 80.8002 42.5678H82.2115C82.4383 42.5582 82.6648 42.5947 82.8799 42.6755C83.0441 42.747 83.1772 42.8865 83.2513 43.0648C83.3451 43.3076 83.3883 43.571 83.3776 43.8351V44.9285V44.9202ZM88.9631 42.5595H87.537L86.4674 45.4255H86.4229L85.3533 42.5595H83.9272V46.1378H84.67V43.2719H84.7739L85.8732 46.1378H86.9725L88.0718 43.2719H88.1757V46.1378H88.9185V42.5595H88.9631ZM94.6005 42.5595H93.1744L92.1049 45.4255H92.0603L90.9908 42.5595H89.587V46.1378H90.3297V43.2719H90.4337L91.533 46.1378H92.6322L93.7315 43.2719H93.8355V46.1378H94.5782V42.5595H94.6005ZM95.0907 42.5595H95.8335V44.7794C95.8251 44.8699 95.8332 44.9613 95.8575 45.0482C95.8817 45.1351 95.9216 45.2155 95.9746 45.2847C96.1041 45.3942 96.2661 45.4445 96.4277 45.4255H97.4898C97.5988 45.4326 97.7078 45.4128 97.8092 45.3675C97.8497 45.3478 97.8863 45.3194 97.9169 45.2839C97.9475 45.2483 97.9715 45.2064 97.9874 45.1604C98.0339 45.0404 98.0543 44.9099 98.0469 44.7794V42.5595H98.7896V44.8622C98.7942 45.0664 98.7717 45.2701 98.7228 45.4669C98.6893 45.6148 98.6199 45.7495 98.5222 45.8562C98.4256 45.9621 98.3049 46.0366 98.1731 46.0716C97.9987 46.1224 97.8185 46.1447 97.6384 46.1378H96.2717C95.9479 46.1684 95.626 46.0587 95.373 45.8314C95.2685 45.7 95.189 45.5464 95.1392 45.3798C95.0895 45.2133 95.0704 45.0372 95.0833 44.8622V42.5595H95.0907ZM99.3244 46.1378V42.5595H100.624L102.578 45.4255H102.689V42.5595H103.432V46.1378H102.117L100.179 43.2719H100.075V46.1378H99.3244ZM104.925 46.1378H104.182V42.5595H104.925V46.1378ZM108.104 46.1378H106.67C106.431 46.1476 106.191 46.1083 105.965 46.0219C105.885 45.9874 105.812 45.9351 105.75 45.8682C105.689 45.8012 105.641 45.7211 105.608 45.6326C105.524 45.3897 105.487 45.1304 105.497 44.8705V43.8351C105.488 43.553 105.528 43.2717 105.615 43.0068C105.651 42.9159 105.702 42.8342 105.768 42.7671C105.833 42.7 105.91 42.6491 105.994 42.6175C106.234 42.5307 106.485 42.4915 106.737 42.5015H108C108.231 42.4976 108.462 42.534 108.683 42.6092C108.858 42.6717 109.007 42.8046 109.099 42.982C109.212 43.2123 109.264 43.4738 109.248 43.7357H108.453C108.46 43.6624 108.452 43.588 108.429 43.5189C108.406 43.4497 108.368 43.3877 108.319 43.3381C108.184 43.2435 108.025 43.2 107.866 43.2139H106.886C106.752 43.1957 106.618 43.1957 106.484 43.2139C106.445 43.2257 106.408 43.2475 106.377 43.2777C106.346 43.3078 106.322 43.3455 106.306 43.3878C106.267 43.5214 106.25 43.6616 106.254 43.802V44.6883C106.248 44.8302 106.271 44.9719 106.321 45.1024C106.361 45.1916 106.43 45.26 106.514 45.2929C106.632 45.3305 106.755 45.3473 106.878 45.3427H107.866C107.984 45.3595 108.104 45.3595 108.223 45.3427C108.26 45.3312 108.295 45.3113 108.326 45.2843C108.357 45.2572 108.382 45.2236 108.401 45.1853C108.445 45.0821 108.465 44.9682 108.46 44.8539H109.255C109.263 45.1096 109.23 45.3648 109.158 45.6077C109.131 45.6948 109.086 45.7737 109.026 45.8383C108.967 45.9029 108.895 45.9516 108.817 45.9804C108.578 46.071 108.326 46.1104 108.074 46.0964L108.104 46.1378ZM110.414 46.1378H109.515L111.223 42.5595H112.36L114.053 46.1378H113.147L112.738 45.235H110.83L110.414 46.1378ZM111.156 44.5557H112.441L111.832 43.2305H111.795L111.156 44.5557ZM114.217 42.5595H117.685V43.2636H116.326V46.1378H115.583V43.2636H114.239V42.5595H114.217ZM118.933 46.1378H118.19V42.5595H118.933V46.1378ZM120.3 44.8291C120.295 44.954 120.315 45.0786 120.359 45.1936C120.373 45.2378 120.397 45.2774 120.428 45.3092C120.459 45.3409 120.497 45.3638 120.537 45.3758C120.655 45.4141 120.778 45.4308 120.901 45.4255H121.926C122.052 45.4313 122.177 45.4145 122.298 45.3758C122.337 45.3624 122.373 45.34 122.403 45.3101C122.434 45.2801 122.459 45.2432 122.476 45.2018C122.511 45.0788 122.526 44.9498 122.52 44.8208V43.9097C122.527 43.7746 122.509 43.6394 122.468 43.5121C122.449 43.4677 122.422 43.4279 122.389 43.3952C122.356 43.3625 122.317 43.3375 122.275 43.3216C122.158 43.2799 122.035 43.2603 121.911 43.2636H120.916C120.79 43.2597 120.665 43.2793 120.545 43.3216C120.504 43.338 120.467 43.3633 120.435 43.396C120.403 43.4287 120.377 43.4682 120.359 43.5121C120.318 43.6397 120.298 43.7743 120.3 43.9097V44.8291ZM123.271 44.9202C123.274 45.1128 123.254 45.305 123.211 45.4917C123.182 45.6328 123.117 45.7619 123.026 45.8645C122.926 45.9687 122.803 46.0404 122.669 46.0716C122.485 46.1232 122.295 46.1455 122.104 46.1378H120.693C120.511 46.1447 120.328 46.1224 120.151 46.0716C120.014 46.034 119.886 45.9601 119.78 45.8562C119.68 45.7528 119.608 45.621 119.572 45.4752C119.526 45.2947 119.506 45.1075 119.512 44.9202V43.8351C119.506 43.626 119.526 43.4168 119.572 43.2139C119.606 43.069 119.676 42.9373 119.772 42.8329C119.874 42.7318 119.996 42.6606 120.129 42.6258C120.314 42.5824 120.504 42.563 120.693 42.5678H122.104C122.331 42.5569 122.558 42.5934 122.773 42.6755C122.856 42.7085 122.931 42.7601 122.995 42.8271C123.059 42.894 123.11 42.975 123.144 43.0648C123.238 43.3076 123.281 43.571 123.271 43.8351V44.9285V44.9202ZM123.798 46.1378V42.5595H125.09L127.051 45.4255H127.155V42.5595H127.898V46.1378H126.576L124.645 43.2719H124.541V46.1378H123.798ZM131.003 42.5595C131.217 42.5502 131.432 42.5868 131.634 42.6672C131.785 42.7246 131.913 42.8427 131.99 42.9985C132.07 43.1754 132.109 43.3721 132.102 43.5701H131.359C131.36 43.5228 131.353 43.4758 131.338 43.4317C131.322 43.3876 131.299 43.3473 131.27 43.3133C131.181 43.2455 131.073 43.216 130.965 43.2305H129.695C129.443 43.2305 129.324 43.3547 129.324 43.6032C129.317 43.6572 129.322 43.7122 129.337 43.7639C129.353 43.8155 129.379 43.8626 129.413 43.9014C129.499 43.9541 129.598 43.9771 129.695 43.9677H131.099C131.262 43.9568 131.426 43.9568 131.589 43.9677C131.704 43.9891 131.812 44.037 131.909 44.1085C132.003 44.1914 132.073 44.3039 132.109 44.4315C132.159 44.6224 132.182 44.8209 132.176 45.0196C132.183 45.2336 132.145 45.4464 132.065 45.6408C131.989 45.8012 131.866 45.9272 131.716 45.997C131.516 46.0776 131.304 46.1142 131.092 46.1047H129.539C129.32 46.1145 129.101 46.0779 128.893 45.997C128.748 45.9386 128.628 45.8199 128.559 45.6657C128.485 45.4867 128.45 45.2911 128.455 45.0942H129.242C129.244 45.1397 129.255 45.1844 129.274 45.2246C129.293 45.2648 129.32 45.2995 129.354 45.3261C129.429 45.3953 129.524 45.4333 129.621 45.4338H130.913C131.046 45.4448 131.178 45.4101 131.292 45.3344C131.334 45.299 131.367 45.2522 131.388 45.1985C131.409 45.1448 131.417 45.0861 131.411 45.0279C131.424 44.9512 131.424 44.8726 131.411 44.796C131.385 44.7555 131.35 44.7224 131.31 44.6994C131.27 44.6764 131.226 44.6641 131.181 44.6634C131.075 44.6266 130.965 44.6098 130.854 44.6137H129.71C129.522 44.6292 129.334 44.6292 129.146 44.6137C129.016 44.5911 128.892 44.5374 128.782 44.4564C128.689 44.3686 128.619 44.254 128.581 44.125C128.532 43.9483 128.509 43.7635 128.514 43.5784C128.511 43.4204 128.533 43.2631 128.581 43.1145C128.625 42.9912 128.697 42.8827 128.789 42.7997C128.9 42.7099 129.027 42.6477 129.161 42.6175C129.342 42.581 129.526 42.5643 129.71 42.5678L131.003 42.5595Z" fill="white"/>
<path id="Vector_16" fill-rule="evenodd" clip-rule="evenodd" d="M40.7656 46.11V42.5008H42.0564L44.0145 45.3947H44.1171V42.5008H44.8505V46.11H43.5304L41.609 43.2243H41.499V46.11H40.7656ZM45.4959 46.11V42.5008H48.7741V43.1832H46.2659V44.0053H48.6934V44.6384H46.2659V45.4605H48.7741V46.1429L45.4959 46.11ZM49.2068 42.5008H52.6756V43.2243H51.3189V46.11H50.5855V43.2243H49.2068V42.5008ZM56.7605 46.11L55.9831 43.6436L55.2497 46.11H54.0764L52.8223 42.5008H53.6217L54.6264 45.4029L55.5358 42.5008H56.3351L57.2519 45.3783H57.3105L58.2932 42.5008H59.0853L57.8459 46.11H56.7605ZM60.2074 44.7863C60.2065 44.9127 60.2264 45.0381 60.266 45.1563C60.2828 45.1997 60.3079 45.2385 60.3396 45.2698C60.3713 45.301 60.4088 45.3241 60.4494 45.3372C60.5655 45.3785 60.6869 45.398 60.8087 45.3947H61.8281C61.9571 45.3983 62.0859 45.3789 62.2095 45.3372C62.2485 45.3225 62.2843 45.2989 62.3146 45.2677C62.3449 45.2366 62.3691 45.1986 62.3855 45.1563C62.4197 45.0369 62.4346 44.9116 62.4295 44.7863V43.8656C62.4386 43.728 62.4185 43.5899 62.3708 43.4627C62.3541 43.4183 62.329 43.3785 62.2974 43.3459C62.2658 43.3133 62.2283 43.2886 62.1875 43.2736C62.0658 43.2359 61.9396 43.2193 61.8134 43.2243H60.8234C60.6972 43.2193 60.5711 43.2359 60.4494 43.2736C60.4092 43.2905 60.3727 43.3169 60.3423 43.3509C60.3119 43.3849 60.2884 43.4259 60.2734 43.4709C60.2303 43.5969 60.2079 43.7306 60.2074 43.8656V44.8275V44.7863ZM63.1995 44.8768C63.2062 45.0708 63.1864 45.2649 63.1408 45.4523C63.1108 45.5943 63.0475 45.7249 62.9575 45.8304C62.8556 45.9326 62.7318 46.0034 62.5982 46.036C62.4164 46.0899 62.2288 46.1148 62.0408 46.11H60.6254C60.4399 46.1138 60.2548 46.0889 60.0753 46.036C59.9412 46.0003 59.8175 45.9267 59.716 45.8222C59.6168 45.7173 59.5457 45.5835 59.5107 45.4358C59.4627 45.2545 59.4404 45.0658 59.4446 44.8768V43.7833C59.4416 43.5732 59.4613 43.3634 59.5033 43.1585C59.5404 43.0118 59.6112 42.8786 59.7087 42.7721C59.8089 42.6673 59.9334 42.5961 60.068 42.5666C60.2507 42.5195 60.4379 42.4974 60.6254 42.5008H62.0408C62.2676 42.4937 62.4937 42.5327 62.7082 42.6159C62.8672 42.6922 62.9971 42.8291 63.0748 43.0023C63.1699 43.2483 63.2126 43.5157 63.1995 43.7833V44.8768ZM64.4609 43.2325V44.326H66.0743C66.1352 44.3333 66.1967 44.3261 66.2548 44.3048C66.313 44.2836 66.3664 44.2488 66.4117 44.2026C66.4869 44.0769 66.5207 43.9257 66.507 43.7751C66.5178 43.6285 66.487 43.4817 66.419 43.3559C66.3722 43.3099 66.3174 43.2753 66.2581 43.2541C66.1988 43.2329 66.1363 43.2255 66.0743 43.2325H64.4609ZM67.3357 46.1182H66.6024V45.5509C66.6079 45.4788 66.5981 45.4062 66.5739 45.339C66.5497 45.2719 66.5117 45.2121 66.463 45.1645C66.3213 45.0716 66.157 45.0313 65.9937 45.0494H64.5269V46.1182H63.7935V42.5091H66.2283C66.3886 42.5092 66.5484 42.5285 66.705 42.5666C66.8341 42.602 66.9544 42.6694 67.0571 42.7639C67.1652 42.8697 67.2462 43.0059 67.2917 43.1585C67.3532 43.3593 67.3805 43.5713 67.3724 43.7833C67.385 43.9876 67.3415 44.1913 67.2477 44.3671C67.1586 44.513 67.0407 44.634 66.9031 44.7206L67.2037 44.8603C67.2695 44.902 67.3249 44.9613 67.3651 45.033C67.4141 45.1365 67.437 45.253 67.4311 45.3701V46.1182H67.3357ZM67.8271 46.1182V42.5091H68.5605V43.8573H69.0152L70.4232 42.5091H71.5746L69.6752 44.2026L71.648 46.1182H70.5186L69.0518 44.5726H68.5825V46.1182H67.8271Z" fill="white"/>
<path id="Vector_17" fill-rule="evenodd" clip-rule="evenodd" d="M23.2123 20.6429L21.2171 22.989L35.6761 26.0411C35.6761 26.0411 27.3743 26.0411 22.4351 26.0411C22.4449 26.5852 22.3402 27.1255 22.1271 27.6302C21.9141 28.1349 21.597 28.5936 21.1947 28.9792C21.1947 29.0148 18.273 48.989 18.273 48.989V30.1629C17.3328 30.1722 16.4148 29.8894 15.6577 29.3571L13.5879 31.9029H15.172L18.2282 51L21.2171 31.9029H23.1898V29.0505L37.0585 26.0126L23.1973 23.0175L23.2123 20.6429Z" fill="white"/>
<path id="Vector_18" fill-rule="evenodd" clip-rule="evenodd" d="M12.976 31.5714L14.8522 29.0854L1.43939 25.9038H13.7064C13.7257 24.809 14.1543 23.7643 14.9023 22.9886L15.024 22.8776L17.8885 2.1605C17.8885 2.1605 17.8885 3.31474 17.8885 3.98805V21.7456C18.7054 21.7654 19.4981 22.0358 20.1657 22.5225L22.2353 19.9106H20.7171L17.8527 0L14.8808 19.9106H12.976V22.7888L0 25.926L12.976 29.0484V31.5714Z" fill="white"/>
<path id="Vector_19" fill-rule="evenodd" clip-rule="evenodd" d="M135.883 6.07141L142.349 26.2257L136.113 46.1428H140.757L147 26.2257L140.527 6.07141H135.883Z" fill="white"/>
</g>
</svg>
