<svg width="67" height="94" viewBox="0 0 67 94" fill="none" xmlns="http://www.w3.org/2000/svg">
<g id="&#208;&#183;&#208;&#178;&#208;&#181;&#208;&#183;&#208;&#180;&#208;&#176;">
<path id="Vector" fill-rule="evenodd" clip-rule="evenodd" d="M36.8478 50.2524C37.3626 49.7402 37.7683 49.1275 38.0401 48.4518C38.3119 47.776 38.4441 47.0514 38.4286 46.3224H33.1413L29.7754 50.6921C30.8248 51.4497 32.101 51.8196 33.3891 51.7395C34.6772 51.6594 35.8987 51.1342 36.8478 50.2524Z" fill="white"/>
<path id="Vector_2" fill-rule="evenodd" clip-rule="evenodd" d="M29.1901 42.8731C28.206 43.8563 27.6393 45.1866 27.6094 46.5833H33.1283L36.1672 42.3371C35.122 41.5996 33.8557 41.2499 32.5836 41.3476C31.3116 41.4453 30.1125 41.9844 29.1901 42.8731Z" fill="white"/>
<path id="Vector_3" fill-rule="evenodd" clip-rule="evenodd" d="M41.9143 36.5796L38.3304 40.9356L63.9493 46.6383H40.4971C40.5141 47.657 40.3274 48.6688 39.9481 49.6131C39.5688 50.5575 39.0047 51.4151 38.2896 52.1348C38.2214 52.1348 33.1113 89.4702 33.1113 89.4702V54.3335C31.4406 54.3523 29.8093 53.8217 28.4645 52.8219L24.7852 57.5765H27.5923L33.0431 93.2217L38.3713 57.5765H41.8735V52.2448L66.5384 46.5833L41.928 40.9906L41.9143 36.5796Z" fill="white"/>
<path id="Vector_4" fill-rule="evenodd" clip-rule="evenodd" d="M24.0381 56.8207L27.513 52.341L2.63002 46.6383C2.63002 46.6383 25.1691 46.6383 25.3463 46.6383C25.3877 44.6719 26.1783 42.7971 27.5539 41.4028L27.7855 41.1967L33.0592 3.94377C33.0592 3.94377 33.0592 6.01872 33.0592 7.22797V39.1905C34.5712 39.2163 36.0416 39.6946 37.2836 40.5646L41.14 35.8101H38.4146L33.1137 0L27.5675 35.8238H24.0381V41.0043L0 46.6383L24.0381 52.2448V56.8207Z" fill="white"/>
</g>
</svg>
