<svg width="13" height="18" viewBox="0 0 13 18" fill="none" xmlns="http://www.w3.org/2000/svg">
<g id="&#208;&#183;&#208;&#178;&#208;&#181;&#208;&#183;&#208;&#180;&#208;&#176;">
<path id="Vector" fill-rule="evenodd" clip-rule="evenodd" d="M7.20078 9.70315C7.3014 9.60426 7.38071 9.48596 7.43383 9.35547C7.48696 9.22499 7.5128 9.08509 7.50976 8.94431H6.47628L5.81836 9.78806C6.02348 9.93434 6.27293 10.0058 6.52472 9.99029C6.7765 9.97483 7.01526 9.87343 7.20078 9.70315Z" fill="#00BBFE"/>
<path id="Vector_2" fill-rule="evenodd" clip-rule="evenodd" d="M5.70351 8.27836C5.51116 8.46822 5.40037 8.72509 5.39453 8.99476H6.4733L7.06729 8.17488C6.86299 8.03246 6.61547 7.96495 6.36683 7.98382C6.1182 8.00268 5.8838 8.10677 5.70351 8.27836Z" fill="#00BBFE"/>
<path id="Vector_3" fill-rule="evenodd" clip-rule="evenodd" d="M8.18843 7.06306L7.48822 7.90415L12.4935 9.00527H7.91154C7.91486 9.20198 7.87837 9.39734 7.80427 9.57969C7.73017 9.76203 7.61996 9.92763 7.48023 10.0666C7.46692 10.0666 6.46852 17.2756 6.46852 17.2756V10.4911C6.14211 10.4948 5.82339 10.3923 5.56064 10.1993L4.8418 11.1173H5.39025L6.45521 18L7.4962 11.1173H8.18044V10.0878L12.9994 8.99467L8.19109 7.91477L8.18843 7.06306Z" fill="#00BBFE"/>
<path id="Vector_4" fill-rule="evenodd" clip-rule="evenodd" d="M4.69646 10.9714L5.37537 10.1065L0.513842 9.00533C0.513842 9.00533 4.91744 9.00533 4.95205 9.00533C4.96015 8.62564 5.1146 8.26364 5.38336 7.99442L5.42862 7.95462L6.45897 0.761498C6.45897 0.761498 6.45897 1.16215 6.45897 1.39564V7.56724C6.75439 7.57223 7.04165 7.66458 7.28431 7.83257L8.03777 6.91452H7.50529L6.46962 0L5.38602 6.91717H4.69646V7.91748L0 9.00533L4.69646 10.0879V10.9714Z" fill="#00BBFE"/>
</g>
</svg>
